<?xml version="1.0" standalone="no"?><!DOCTYPE svg PUBLIC "-//W3C//DTD SVG 1.1//EN" "http://www.w3.org/Graphics/SVG/1.1/DTD/svg11.dtd"><svg t="1564235539110" class="icon" viewBox="0 0 1024 1024" version="1.1" xmlns="http://www.w3.org/2000/svg" p-id="2095" xmlns:xlink="http://www.w3.org/1999/xlink" width="32" height="32"><defs><style type="text/css"></style></defs><path d="M512 997.3248C244.4032 997.3248 26.6752 779.6224 26.6752 512 26.6752 244.4032 244.4032 26.6752 512 26.6752c267.6224 0 485.3248 217.7024 485.3248 485.3248 0 267.6224-217.7024 485.3248-485.3248 485.3248z m0-901.0176C282.7776 96.3072 96.3072 282.7776 96.3072 512c0 229.1968 186.4704 415.6928 415.6928 415.6928 229.1968 0 415.6928-186.4704 415.6928-415.6928S741.1968 96.3072 512 96.3072z" fill="#1afa29" p-id="2096"></path><path d="M459.776 285.6704a52.224 52.224 0 1 0 104.448 0 52.224 52.224 0 0 0-104.448 0zM512 790.5536a34.816 34.816 0 0 1-34.816-34.816V442.368a34.816 34.816 0 0 1 69.632 0V755.712c0 19.2512-15.616 34.816-34.816 34.816z" fill="#1afa29" p-id="2097"></path></svg>