<?xml version="1.0" standalone="no"?><!DOCTYPE svg PUBLIC "-//W3C//DTD SVG 1.1//EN" "http://www.w3.org/Graphics/SVG/1.1/DTD/svg11.dtd"><svg t="1565072090908" class="icon" viewBox="0 0 1024 1024" version="1.1" xmlns="http://www.w3.org/2000/svg" p-id="1242" xmlns:xlink="http://www.w3.org/1999/xlink" width="32" height="32"><defs><style type="text/css"></style></defs><path d="M168.84303991 553.60023089c10.06747137-9.02476911 23.65855817-14.16637067 38.04066059-14.16637066 14.05850519 0 27.82936805 5.14160156 37.89683941 14.16637066l267.68687848 239.82155555 267.97452081-239.82155555a58.35538019 58.35538019 0 0 1 74.35546875 1.36629951c20.49449567 18.19335938 21.10573523 47.56880299 1.58203125 66.51722308L552.73730469 893.12571009a56.4497517 56.4497517 0 0 1-40.2698863 13.69895227 56.4497517 56.4497517 0 0 1-40.30584196-13.69895228L168.84303991 621.33993231c-10.06747137-8.88094793-15.8203125-21.21360071-15.8203125-33.8698507s5.75284113-24.8091267 15.8203125-33.86985072z" fill="#ffda33" p-id="1243"></path><path d="M452.02663366 794.06898089V172.83407293C452.02663366 141.8046875 478.70543317 116.4921875 511.82022394 116.4921875c33.07883508 0 59.79359027 25.13272394 59.79359026 56.30593054v621.23490718c0 30.99343055-26.71475519 56.30593054-59.79359026 56.30593053s-59.79359027-25.16867883-59.79359027-56.30593053z" fill="#ffda33" p-id="1244"></path></svg>