<?xml version="1.0" standalone="no"?><!DOCTYPE svg PUBLIC "-//W3C//DTD SVG 1.1//EN" "http://www.w3.org/Graphics/SVG/1.1/DTD/svg11.dtd"><svg t="1565334883928" class="icon" viewBox="0 0 1024 1024" version="1.1" xmlns="http://www.w3.org/2000/svg" p-id="1569" xmlns:xlink="http://www.w3.org/1999/xlink" width="32" height="32"><defs><style type="text/css"></style></defs><path d="M512.04965927 859.61428833C320.36520858 859.61428833 164.38571167 703.63479142 164.38571167 512s155.97949689-347.61428833 347.66394761-347.61428833S859.61428833 320.41486784 859.61428833 512s-155.88017902 347.61428833-347.56462905 347.61428833z m0-648.79723986A301.53056583 301.53056583 0 0 0 210.81704846 512a301.58022442 301.58022442 0 0 0 301.23261081 301.23261014A301.53056583 301.53056583 0 0 0 813.18295154 512 301.48090655 301.48090655 0 0 0 512.04965927 210.81704846z" fill="#1296DB" p-id="1570"></path><path d="M713.76526508 402.35252134c0 13.60661653-10.52774722 24.82959231-23.38947589 24.82959231H412.97958711c-12.86172866 0-23.38947588-11.22297578-23.38947589-24.82959232 0-13.6562758 10.52774722-24.82959231 23.38947588-24.82959164h277.44586138c12.86172866 0 23.3398166 11.22297578 23.33981659 24.82959164z" fill="#1296DB" p-id="1571"></path><path d="M336.90171724 402.35252134m-24.82959231-1e-8a24.82959231 24.82959231 0 1 0 49.65918395 0 24.82959231 24.82959231 0 1 0-49.65918396 0Z" fill="#1296DB" p-id="1572"></path><path d="M713.76526508 509.71567783c0 13.6562758-10.52774722 24.82959231-23.38947589 24.82959163H412.97958711c-12.86172866 0-23.38947588-11.17331651-23.38947589-24.82959163 0-13.55695725 10.52774722-24.82959231 23.38947588-24.82959231h277.44586138c12.86172866 0 23.3398166 11.22297578 23.33981659 24.8295923z" fill="#1296DB" p-id="1573"></path><path d="M336.90171724 509.71567783m-24.82959231 0a24.82959231 24.82959231 0 1 0 49.65918395 0 24.82959231 24.82959231 0 1 0-49.65918396 0Z" fill="#1296DB" p-id="1574"></path><path d="M713.76526508 617.02917436c0 13.55695725-10.52774722 24.82959231-23.38947589 24.82959162H412.97958711c-12.86172866 0-23.38947588-11.27263508-23.38947589-24.82959163 0-13.6562758 10.52774722-24.82959231 23.38947588-24.82959231h277.44586138c12.86172866 0 23.3398166 11.17331651 23.33981659 24.82959231z" fill="#1296DB" p-id="1575"></path><path d="M336.90171724 617.02917436m-24.82959231-1e-8a24.82959231 24.82959231 0 1 0 49.65918395 0 24.82959231 24.82959231 0 1 0-49.65918396 0Z" fill="#1296DB" p-id="1576"></path></svg>