<?xml version="1.0" standalone="no"?><!DOCTYPE svg PUBLIC "-//W3C//DTD SVG 1.1//EN" "http://www.w3.org/Graphics/SVG/1.1/DTD/svg11.dtd"><svg t="1564755996443" class="icon" viewBox="0 0 1094 1024" version="1.1" xmlns="http://www.w3.org/2000/svg" p-id="7069" xmlns:xlink="http://www.w3.org/1999/xlink" width="34.1875" height="32"><defs><style type="text/css"></style></defs><path d="M374.05693232 755.42064013h-225.84692636l-65.28387656-81.16373935 10.58657432-511.6844417 72.34159394-75.87045176h774.58437861l61.75501875 68.81273526-15.87986192 548.73745312-63.51944765 51.16844443h-225.84692637l-154.14052676 174.67848194-168.75-174.67848194z" fill="#FFDA33" p-id="7070"></path><path d="M405.81665615 744.83406494h275.35680703l-140.13095976 158.79862002-135.22584727-158.79862002z" fill="#FFDA33" p-id="7071"></path><path d="M302.40346573 373.72169112c-33.18891152 0-60.09645586 27.91326885-60.09645499 62.33728007s26.90754434 62.33728008 60.09645499 62.33728008 60.09645586-27.91326885 60.09645585-62.33728008-26.90754434-62.33728008-60.09645585-62.33728007z m240.40346659 0c-33.18891152 0-60.09645586 27.91326885-60.09645586 62.33728007s26.90754434 62.33728008 60.09645586 62.33728008 60.09645586-27.91326885 60.09645498-62.33728008-26.90754434-62.33728008-60.09645498-62.33728007z m240.40346573 0c-33.18891152 0-60.09645586 27.91326885-60.09645498 62.33728007s26.90754434 62.33728008 60.09645498 62.33728008 60.18467695-27.89562393 60.18467695-62.33728008-26.90754434-62.33728008-60.09645498-62.33728007zM903.38566484 62H182.19291084C115.81508779 62 62 117.82653682 62 186.69220508v467.57371377c0 68.81273526 55.03254433 132.33218291 122.92777617 132.33218378h183.18303018c31.9361669 34.01819297 164.09190674 170.83202607 164.09190674 170.83202609a14.60947324 14.60947324 0 0 0 21.17314951 0s96.76129219-109.69455762 159.78670049-170.83202609h187.52352539c67.91287676 0 122.92777617-63.51944766 122.92777617-132.33218378v-467.57371377C1023.61386464 117.87946982 969.79877685 62 903.40330888 62z m60.09645586 592.26591885c0 34.42401211-28.8837044 70.57716416-62.83132119 70.57716415H716.35617969c-22.33767217 0-42.34629903 22.93757842-42.34629903 22.93757843l-129.43851943 134.25541172-129.42087539-134.25541172s-24.70200732-22.93757842-45.78693486-22.93757843H184.92777617c-33.94761592 0-62.83132031-36.11786396-62.83132031-70.57716415v-467.57371377c0-34.44165615 26.90754434-62.354925 60.09645498-62.354925h721.192754c33.18891152 0 60.09645586 27.91326885 60.09645586 62.354925v467.57371377z" fill="#000000" p-id="7072"></path></svg>