<?xml version="1.0" standalone="no"?><!DOCTYPE svg PUBLIC "-//W3C//DTD SVG 1.1//EN" "http://www.w3.org/Graphics/SVG/1.1/DTD/svg11.dtd"><svg t="1564235172982" class="icon" viewBox="0 0 1024 1024" version="1.1" xmlns="http://www.w3.org/2000/svg" p-id="6475" xmlns:xlink="http://www.w3.org/1999/xlink" width="32" height="32"><defs><style type="text/css"></style></defs><path d="M921.6 351c-22.6-49.1-54.8-93.1-95.9-130.8-40.9-37.6-88.4-67.1-141.3-87.6-54.6-21.2-112.6-32-172.4-32s-117.8 10.8-172.4 32c-52.9 20.6-100.5 50.1-141.3 87.6C157.2 257.9 125 302 102.4 351 78.9 402 67 456.1 67 512c0 62.6 15.6 124.8 45.1 180.7L76.3 875.4c-1.9 9.8 1.2 19.9 8.3 27 7.1 7.1 17.2 10.1 27 8.2L299 873.4c65 32.8 138.5 50.1 213 50.1 59.8 0 117.8-10.8 172.4-32 52.9-20.6 100.5-50.1 141.3-87.6 41.1-37.7 73.3-81.8 95.9-130.8 23.5-51 35.4-105.2 35.4-161 0-56-11.9-110.1-35.4-161.1zM512 863.5c-68.4 0-135.7-16.6-194.4-48.1-4.4-2.3-9.2-3.6-14.2-3.6-1.9 0-3.9 0.2-5.8 0.6L143.7 843 173 693.6c1.4-7 0.2-14.3-3.3-20.5C141.4 622.9 127 568.8 127 512c0-193.8 172.7-351.5 385-351.5S897 318.2 897 512 724.3 863.5 512 863.5z" fill="#1afa29" p-id="6476"></path><path d="M666 419H350.6c-15.8 0-29.4 12-30.5 27.8-1.3 17.6 12.6 32.2 29.9 32.2h315.4c15.8 0 29.4-12 30.5-27.8 1.3-17.5-12.6-32.2-29.9-32.2zM536 546H356.6c-15.8 0-29.4 12-30.5 27.8-1.3 17.6 12.6 32.2 29.9 32.2h179.4c15.8 0 29.4-12 30.5-27.8 1.3-17.5-12.6-32.2-29.9-32.2z" fill="#1afa29" p-id="6477"></path></svg>