<?xml version="1.0" standalone="no"?><!DOCTYPE svg PUBLIC "-//W3C//DTD SVG 1.1//EN" "http://www.w3.org/Graphics/SVG/1.1/DTD/svg11.dtd"><svg t="1564235482043" class="icon" viewBox="0 0 1024 1024" version="1.1" xmlns="http://www.w3.org/2000/svg" p-id="1215" xmlns:xlink="http://www.w3.org/1999/xlink" width="32" height="32"><defs><style type="text/css"></style></defs><path d="M186.1 511.7h29.6c32.8 0 59.6-26.8 59.6-59.6V363c0-13.4-4.6-25.9-12-36 38.3-100.7 135.8-172.3 250.4-172.3S725.2 226.3 764 327c-7.9 10.2-12 22.6-12 36v89.1c0 32.8 26.8 59.6 59.6 59.6h29.6c32.8 0 59.6-26.8 59.6-59.6V363c0-29.6-21.7-54-49.9-58.7-49-139-181.1-238.8-337.2-238.8s-288.2 99.8-337.2 238.8c-28.2 4.6-49.9 29.1-49.9 58.7v89.1c-0.1 32.8 26.3 59.6 59.5 59.6zM923.3 824.5l-10.6-30C878.1 696 792.6 630.9 697 630.9h-17.6c-47.6 40.6-105.8 65.6-166.3 65.6-72.1 0-136.7-24.5-188.5-65.6-93.8 1.8-177.4 66.5-211.6 163.5l-10.6 30c-4.2 11.1-6 23.1-6 35.1 0 54.5 39.7 98.4 89.1 98.4h655c11.1 0 21.7-2.3 31.9-6.5 45.9-19.3 68.9-76.1 50.9-126.9z" fill="#1afa29" p-id="1216"></path><path d="M513.2 422.6m-178.3 0a178.3 178.3 0 1 0 356.6 0 178.3 178.3 0 1 0-356.6 0Z" fill="#1afa29" p-id="1217"></path></svg>