<?xml version="1.0" standalone="no"?><!DOCTYPE svg PUBLIC "-//W3C//DTD SVG 1.1//EN" "http://www.w3.org/Graphics/SVG/1.1/DTD/svg11.dtd"><svg t="1564293975523" class="icon" viewBox="0 0 1024 1024" version="1.1" xmlns="http://www.w3.org/2000/svg" p-id="4534" xmlns:xlink="http://www.w3.org/1999/xlink" width="32" height="32"><defs><style type="text/css"></style></defs><path d="M512 959C265.5 959 65 758.5 65 512S265.5 65 512 65s447 200.5 447 447-200.5 447-447 447z m0-862.6C282.8 96.4 96.4 282.8 96.4 512c0 229.2 186.4 415.6 415.6 415.6 229.2 0 415.6-186.4 415.6-415.6 0-229.2-186.4-415.6-415.6-415.6z" fill="#1afa29" p-id="4535"></path><path d="M685.2 704.5H338.8c-43.4 0-78.8-35.3-78.8-78.8V398.3c0-43.5 35.4-78.8 78.8-78.8h346.5c43.4 0 78.8 35.3 78.8 78.8v227.5c-0.1 43.4-35.5 78.7-78.9 78.7zM338.8 351c-26.1 0-47.3 21.2-47.3 47.3v227.5c0 26 21.2 47.3 47.3 47.3h346.5c26.1 0 47.3-21.2 47.3-47.3V398.3c0-26.1-21.2-47.3-47.3-47.3H338.8z m0 0" fill="#1afa29" p-id="4536"></path><path d="M509.8 553.8c-16.7 0-33.3-6.3-46-19L290.5 361.5l22.3-22.3 173.3 173.3c13.1 13.1 34.3 13.1 47.4 0l173.3-173.3 22.3 22.3-173.3 173.4c-12.7 12.6-29.4 18.9-46 18.9z m0 0" fill="#1afa29" p-id="4537"></path></svg>