<?xml version="1.0" standalone="no"?><!DOCTYPE svg PUBLIC "-//W3C//DTD SVG 1.1//EN" "http://www.w3.org/Graphics/SVG/1.1/DTD/svg11.dtd"><svg t="1564122402436" class="icon" viewBox="0 0 1024 1024" version="1.1" xmlns="http://www.w3.org/2000/svg" p-id="15048" xmlns:xlink="http://www.w3.org/1999/xlink" width="32" height="32"><defs><style type="text/css"></style></defs><path d="M512 512m-512 0a512 512 0 1 0 1024 0 512 512 0 1 0-1024 0Z" fill="#FA4D3F" p-id="15049"></path><path d="M583.68 512l128-128a51.2 51.2 0 1 0-71.68-71.68L512 440.32 384 312.32a51.2 51.2 0 1 0-71.68 71.68L440.32 512l-128 128a51.2 51.2 0 0 0 71.68 71.68l128-128 128 128a51.2 51.2 0 1 0 71.68-71.68z" fill="#FFFFFF" p-id="15050"></path></svg>