<?xml version="1.0" standalone="no"?><!DOCTYPE svg PUBLIC "-//W3C//DTD SVG 1.1//EN" "http://www.w3.org/Graphics/SVG/1.1/DTD/svg11.dtd"><svg t="1565335775435" class="icon" viewBox="0 0 1024 1024" version="1.1" xmlns="http://www.w3.org/2000/svg" p-id="1701" xmlns:xlink="http://www.w3.org/1999/xlink" width="32" height="32"><defs><style type="text/css"></style></defs><path d="M519.73333333 276.8c-225.6 0-360 228-360 228s156 223.2 360 223.2 360-223.2 360-223.2-134.4-228-360-228z m230.4 314.4c-74.4 62.4-153.6 103.2-232.8 103.2s-158.4-38.4-232.8-103.2c-26.4-24-50.4-45.6-72-72-4.8-4.8-7.2-9.6-12-14.4 2.4-4.8 7.2-9.6 9.6-14.4C229.33333333 464 253.33333333 440 277.33333333 416c72-64.8 151.2-105.6 240-105.6s168 40.8 240 105.6c26.4 24 45.6 48 67.2 74.4 2.4 4.8 7.2 9.6 9.6 14.4-2.4 4.8-7.2 9.6-12 14.4-19.2 21.6-43.2 48-72 72z" fill="#1296DB" p-id="1702"></path><path d="M517.33333333 358.4c-74.4 0-132 60-132 132 0 74.4 60 132 132 132 74.4 0 132-60 132-132s-60-132-132-132z m0 228c-52.8 0-93.6-43.2-93.6-93.6s43.2-93.6 93.6-93.6 93.6 43.2 93.6 93.6c2.4 50.4-40.8 93.6-93.6 93.6z" fill="#1296DB" p-id="1703"></path></svg>