<?xml version="1.0" standalone="no"?><!DOCTYPE svg PUBLIC "-//W3C//DTD SVG 1.1//EN" "http://www.w3.org/Graphics/SVG/1.1/DTD/svg11.dtd"><svg t="1564235361381" class="icon" viewBox="0 0 1024 1024" version="1.1" xmlns="http://www.w3.org/2000/svg" p-id="8245" xmlns:xlink="http://www.w3.org/1999/xlink" width="32" height="32"><defs><style type="text/css"></style></defs><path d="M272.5 363.8h461.3v40H272.5zM272.5 456.8h460.9v40H272.5zM272.5 549.8h280.3v40H272.5zM662.4 680.7l-19.4-21c32.3-14 48.9-30.1 50-48.4h-43.5v-62.9h83.9v54.8c2.1 34.5-21.5 60.3-71 77.5z" fill="#1afa29" p-id="8246"></path><path d="M388.6 907.7c-6.6 0-13.2-1.8-19.1-5.4-11.1-6.7-17.7-18.5-17.7-31.5v-94.6H219.9c-47.1 0-85.4-38.3-85.4-85.4V306.5c0-47.1 38.3-85.4 85.4-85.4h582.5c47.1 0 85.4 38.3 85.4 85.4v384.2c0 47.1-38.3 85.4-85.4 85.4H650.8L405.6 903.5c-5.3 2.8-11.2 4.2-17 4.2zM219.9 261.1c-25.1 0-45.4 20.4-45.4 45.4v384.2c0 25.1 20.4 45.4 45.4 45.4h135c20.3 0 36.9 16.5 36.9 36.9v92.6l241.3-125.3c5.2-2.7 11.1-4.2 17-4.2h152.4c25.1 0 45.4-20.4 45.4-45.4V306.5c0-25.1-20.4-45.4-45.4-45.4H219.9z" fill="#1afa29" p-id="8247"></path></svg>