<?xml version="1.0" standalone="no"?><!DOCTYPE svg PUBLIC "-//W3C//DTD SVG 1.1//EN" "http://www.w3.org/Graphics/SVG/1.1/DTD/svg11.dtd"><svg t="1564324959867" class="icon" viewBox="0 0 1024 1024" version="1.1" xmlns="http://www.w3.org/2000/svg" p-id="8801" xmlns:xlink="http://www.w3.org/1999/xlink" width="32" height="32"><defs><style type="text/css"></style></defs><path d="M512.188768 211.80897c180.451556 0 327.261091 146.350545 327.261091 326.237091 0 59.262707-22.899071 133.995313-58.338263 190.38901l-0.704647 1.119676-0.650343 1.146829c-35.754667 62.929455-26.519273 106.227071-6.618505 135.634747-38.278465-0.041374-79.725899-0.099556-117.678545-0.152565-50.662141-0.071111-95.096242-0.133172-117.46392-0.133172-207.875879 0-353.061495-134.88097-353.061495-328.004525 0-179.886545 146.806949-326.237091 327.254627-326.237091m0-59.544566c-213.625535 0-386.799192 172.706909-386.799192 385.781657 0 213.069576 157.759354 387.549091 412.60606 387.549091 51.993859 0 223.290182 0.337455 314.718384 0.337454 20.226586 0 36.534303-0.016808 46.788525-0.056889-3.479273-78.985051-127.599192-60.816808-67.973171-165.758707 40.50101-64.448646 67.466343-149.337212 67.466343-222.072242-0.001293-213.073455-173.174949-385.780364-386.806949-385.780364z" fill="#1296db" p-id="8802"></path><path d="M363.200646 479.606949c-32.886949 0-59.545859 26.660202-59.545858 59.543273 0 32.886949 26.660202 59.549737 59.545858 59.549738s59.545859-26.662788 59.545859-59.549738c0-32.884364-26.658909-59.543273-59.545859-59.543273zM512.063354 479.606949c-32.883071 0-59.543273 26.660202-59.543273 59.543273 0 32.886949 26.658909 59.549737 59.543273 59.549738 32.886949 0 59.549737-26.662788 59.549737-59.549738 0-32.884364-26.664081-59.543273-59.549737-59.543273zM660.932525 479.606949c-32.886949 0-59.549737 26.660202-59.549737 59.543273 0 32.886949 26.662788 59.549737 59.549737 59.549738 32.883071 0 59.543273-26.662788 59.543273-59.549738 0-32.884364-26.660202-59.543273-59.543273-59.543273z" fill="#1296db" p-id="8803"></path></svg>