<?xml version="1.0" standalone="no"?><!DOCTYPE svg PUBLIC "-//W3C//DTD SVG 1.1//EN" "http://www.w3.org/Graphics/SVG/1.1/DTD/svg11.dtd"><svg t="1564293851342" class="icon" viewBox="0 0 1024 1024" version="1.1" xmlns="http://www.w3.org/2000/svg" p-id="3248" xmlns:xlink="http://www.w3.org/1999/xlink" width="32" height="32"><defs><style type="text/css"></style></defs><path d="M512 0C229.12 0 0 229.12 0 512s229.12 512 512 512 512-229.12 512-512S794.88 0 512 0z m271.36 775.68c0 25.6-20.48 46.08-46.08 46.08H323.84c-25.6 0-46.08-20.48-46.08-46.08V253.44c0-25.6 20.48-46.08 46.08-46.08h413.44c25.6 0 46.08 20.48 46.08 46.08v522.24z" fill="#1afa29" p-id="3249"></path><path d="M339.2 281.6h101.12v101.12h-101.12zM337.92 408.32h384V435.2h-384zM337.92 471.04h253.44v26.88H337.92zM337.92 532.48h253.44v26.88H337.92zM337.92 595.2h253.44v26.88H337.92z" fill="#1afa29" p-id="3250"></path></svg>