<?xml version="1.0" standalone="no"?><!DOCTYPE svg PUBLIC "-//W3C//DTD SVG 1.1//EN" "http://www.w3.org/Graphics/SVG/1.1/DTD/svg11.dtd"><svg t="1564122812138" class="icon" viewBox="0 0 1077 1024" version="1.1" xmlns="http://www.w3.org/2000/svg" p-id="19254" xmlns:xlink="http://www.w3.org/1999/xlink" width="33.65625" height="32"><defs><style type="text/css"></style></defs><path d="M1065.319298 161.684211c-17.964912-19.761404-49.403509-21.557895-70.063158-3.592983L520.084211 591.045614 335.94386 388.940351c-17.964912-19.761404-49.403509-21.557895-70.063158-3.592983-19.761404 17.964912-21.557895 49.403509-3.592983 70.063158l211.985965 232.645614c0.898246 0.898246 1.796491 1.796491 3.592983 2.694737 0.898246 0.898246 1.796491 2.694737 2.694737 3.592983 17.964912 19.761404 49.403509 21.557895 70.063157 3.592982l511.101755-465.291228c19.761404-18.863158 21.557895-50.301754 3.592982-70.961403z" fill="#80B622" p-id="19255"></path><path d="M1023.101754 480.561404c0-25.150877-20.659649-44.912281-44.91228-44.912281s-44.912281 20.659649-44.912281 44.912281v3.592982h-1.796491c0.898246 8.982456 0.898246 18.863158 0.898245 27.845614 0 232.645614-188.631579 421.277193-421.277193 421.277193S90.722807 744.645614 90.722807 512s188.631579-421.277193 421.277193-421.277193c92.519298 0 178.750877 29.642105 247.915789 80.842105 8.084211 6.287719 17.066667 9.880702 27.845615 9.880702 25.150877 0 44.912281-20.659649 44.91228-44.912281 0-17.964912-9.880702-32.336842-24.252631-40.421052v-0.898246A510.742456 510.742456 0 0 0 512 0.898246C229.052632 0.898246 0 229.950877 0 512s229.052632 512 512 512 512-229.052632 512-512c0-8.084211 0-16.168421-0.898246-24.252632v-7.185964z" fill="#80B622" p-id="19256"></path></svg>