<?xml version="1.0" standalone="no"?><!DOCTYPE svg PUBLIC "-//W3C//DTD SVG 1.1//EN" "http://www.w3.org/Graphics/SVG/1.1/DTD/svg11.dtd"><svg t="1565334879299" class="icon" viewBox="0 0 1026 1024" version="1.1" xmlns="http://www.w3.org/2000/svg" p-id="1442" xmlns:xlink="http://www.w3.org/1999/xlink" width="32.0625" height="32"><defs><style type="text/css"></style></defs><path d="M859.61428833 412.06089211l-26.07107163-156.42642976c-4.34517861-30.41625023-34.76142883-60.83250046-65.17767905-65.17767905L611.93910789 164.38571167H598.90357209c-30.41625023 0-65.17767906 13.03553581-82.55839348 30.41625022L181.76642608 533.72589302c-21.72589302 21.72589302-21.72589302 56.48732185 1e-8 78.21321487l230.29446602 230.29446603c13.03553581 13.03553581 26.07107163 17.38071443 39.10660743 17.38071441 13.03553581 0 30.41625023-4.34517861 39.10660744-17.38071442l334.57875252-334.57875252c34.76142883-34.76142883 39.10660744-65.17767906 34.76142883-95.59392928z m-60.83250046 65.17767906l-334.57875252 334.57875251c-8.6903572 4.34517861-8.6903572 4.34517861-13.03553581 4.34517861 0 0-4.34517861 0-8.6903572-4.34517861L212.18267632 581.52285766c-4.34517861-4.34517861-4.34517861-13.03553581 0-17.38071441l334.57875251-334.57875253C555.45178603 216.52785492 581.52285766 207.83749771 598.90357209 207.83749771h4.34517859l156.42642975 26.07107163c4.34517861 0 13.03553581 4.34517861 17.38071442 8.6903572 4.34517861 4.34517861 8.6903572 13.03553581 8.6903572 17.38071442l30.41625024 160.77160836c4.34517861 17.38071443 0 34.76142883-17.38071442 56.48732185z" fill="#1296DB" p-id="1443"></path><path d="M655.39089394 294.7410698c-39.10660744 0-69.52285766 30.41625023-69.52285767 69.52285766 0 39.10660744 30.41625023 69.52285766 69.52285767 69.52285767 39.10660744 0 69.52285766-30.41625023 69.52285766-69.52285767 0-39.10660744-30.41625023-69.52285766-69.52285766-69.52285766z" fill="#1296DB" p-id="1444"></path></svg>