<?xml version="1.0" standalone="no"?><!DOCTYPE svg PUBLIC "-//W3C//DTD SVG 1.1//EN" "http://www.w3.org/Graphics/SVG/1.1/DTD/svg11.dtd"><svg t="1564122752104" class="icon" viewBox="0 0 1024 1024" version="1.1" xmlns="http://www.w3.org/2000/svg" p-id="18441" xmlns:xlink="http://www.w3.org/1999/xlink" width="32" height="32"><defs><style type="text/css"></style></defs><path d="M512 512m-512 0a512 512 0 1 0 1024 0 512 512 0 1 0-1024 0Z" fill="#7491FF" p-id="18442"></path><path d="M766.269752 499.547728L548.420347 281.698323a43.330548 43.330548 0 0 0-61.691804 0L268.880337 499.547728c-27.535288 27.530492-8.016937 74.238801 31.020965 74.238801h99.937124v142.043429a43.584749 43.584749 0 0 0 43.572759 43.567962h148.683841a43.584749 43.584749 0 0 0 43.569161-43.569161V573.786529h99.94312c38.686576 0 57.859597-46.708309 30.669639-74.238801z" fill="#FFFFFF" p-id="18443"></path></svg>