<?xml version="1.0" standalone="no"?><!DOCTYPE svg PUBLIC "-//W3C//DTD SVG 1.1//EN" "http://www.w3.org/Graphics/SVG/1.1/DTD/svg11.dtd"><svg t="1564847816455" class="icon" viewBox="0 0 1024 1024" version="1.1" xmlns="http://www.w3.org/2000/svg" p-id="9958" xmlns:xlink="http://www.w3.org/1999/xlink" width="32" height="32"><defs><style type="text/css"></style></defs><path d="M505.793689 509.411132m-358.545379 0a358.545379 358.545379 0 1 0 717.090759 0 358.545379 358.545379 0 1 0-717.090759 0Z" fill="#FFFFFF" p-id="9959"></path><path d="M544.591775 258.039258zM632.330773 286.056157c-5.674309-3.049941-11.490475-5.816166-17.306642-8.440534 5.958024 2.553439 11.703262 5.390593 17.306642 8.440534zM719.856984 362.517466a259.812408 259.812408 0 0 0-30.073836-34.75514 248.676578 248.676578 0 0 1 30.073836 34.75514z" fill="#FAC95E" p-id="9960"></path><path d="M955.482652 255.982321H659.638383L511.9645 0.000071a511.893571 511.893571 0 0 1 443.518152 255.98225z" fill="#B33306" p-id="9961"></path><path d="M363.723186 303.220941l-7.873103 5.887095 2.979012-2.269724zM384.57627 289.957244l-3.191798 1.84415 3.191798-1.915079 2.269724-1.20579zM418.976767 273.43082l-3.404585 1.347648 2.908083-0.993004zM431.034673 269.10416c-2.340652 0.780217-4.681305 1.560435-7.092886 2.48251 1.915079-0.709289 3.830158-1.489506 5.887095-2.127866zM446.851808 264.422855l-6.099882 1.631364h1.134862zM462.314299 260.876412c-4.823162 0.993004-9.575396 2.056937-14.185771 3.191799 2.056937-0.567431 4.042945-1.063933 6.17081-1.489506s5.248736-1.205791 8.014961-1.702293zM496.502009 256.478823l-5.461522 0.354644h6.099882zM503.594895 256.195108h-5.958024 1.20579zM520.617821 256.124179h-7.873103 2.198794z" fill="#FAC95E" p-id="9962"></path><path d="M216.403947 511.964571l-147.815741 256.053179a512.248216 512.248216 0 0 1 0-512.106358z" fill="#00C413" p-id="9963"></path><path d="M256.124108 505.368187v21.987946a242.647625 242.647625 0 0 0 2.766225 25.108816c0 2.198795 0.709289 4.397589 1.134862 6.596384l0.425573 2.48251c0.425573 1.986008 0.851146 3.972016 1.205791 5.958024 1.134862 4.894091 2.340652 9.717254 3.6883 14.185772 0.567431 2.056937 1.134862 4.042945 1.844151 6.028953s0.851146 2.837154 1.276719 4.184802 1.418577 4.184803 2.198795 6.24174 1.773221 4.894091 2.766225 7.092886c0.922075 2.340652 1.915079 4.752234 2.979012 7.092886s1.986008 4.752234 3.12087 7.092886c2.198795 4.681305 4.539447 9.362609 7.092886 14.185771l-70.21957-121.642992 73.34044-127.104514a249.705046 249.705046 0 0 0-13.618341 27.520397c-1.631364 3.830158-3.191799 7.731246-4.610376 11.632333s-2.411581 7.092886-3.546443 10.426542c-2.056937 6.454526-3.901087 13.05091-5.390593 19.718222-0.993004 4.184803-1.84415 8.298676-2.553439 12.554408a252.506736 252.506736 0 0 0-3.262728 25.605318c-0.354644 4.184803-0.567431 8.653321-0.638359 13.05091zM292.865256 644.175963l1.560435 2.553439c-1.276719-1.915079-2.411581-3.901087-3.546443-5.816166zM733.688112 639.99116L659.638383 768.01775H511.9645a255.840392 255.840392 0 0 0 221.723612-128.02659z" fill="#FAC95E" p-id="9964"></path><path d="M955.482652 768.01775a511.893571 511.893571 0 0 1-443.518152 255.98225L659.638383 768.01775z" fill="#F7CD1A" p-id="9965"></path><path d="M766.74096 486.997613a261.656559 261.656559 0 0 0-15.888065-67.240558 250.237013 250.237013 0 0 1 15.888065 67.240558z" fill="#FAC95E" p-id="9966"></path><path d="M294.425691 646.729402c-1.276719-1.915079-2.411581-3.901087-3.546443-5.816166l1.986008 3.262727zM418.976767 273.43082l-3.404585 1.347648 2.908083-0.993004zM431.034673 269.10416c-2.340652 0.780217-4.681305 1.560435-7.092886 2.48251 1.915079-0.709289 3.830158-1.489506 5.887095-2.127866zM446.851808 264.422855l-6.099882 1.631364h1.134862zM462.314299 260.876412c-4.823162 0.993004-9.575396 2.056937-14.185771 3.191799 2.056937-0.567431 4.042945-1.063933 6.17081-1.489506s5.248736-1.205791 8.014961-1.702293zM496.502009 256.478823l-5.461522 0.354644h1.063933zM503.594895 256.195108h-5.958024 1.20579zM514.943512 255.982321h5.674309-7.873103zM544.591775 258.039258zM632.330773 286.056157c-5.674309-3.049941-11.490475-5.816166-17.306642-8.440534 5.958024 2.553439 11.703262 5.390593 17.306642 8.440534zM719.856984 362.517466a259.812408 259.812408 0 0 0-30.073836-34.75514 248.676578 248.676578 0 0 1 30.073836 34.75514zM733.688112 639.99116L659.638383 768.01775H511.9645a255.840392 255.840392 0 0 0 221.723612-128.02659zM766.74096 486.997613a261.656559 261.656559 0 0 0-15.888065-67.240558 250.237013 250.237013 0 0 1 15.888065 67.240558z" fill="#32FF00" p-id="9967"></path><path d="M1023.999929 511.964571a509.836634 509.836634 0 0 1-68.517277 256.053179H659.638383l73.907871-127.671945a1.347648 1.347648 0 0 0 0-0.63836c1.347648-2.269723 2.624368-4.610376 3.830158-7.092886s2.695297-5.106878 3.972016-7.660316a251.442803 251.442803 0 0 0 10.497471-23.548381c1.063933-2.908083 2.127866-5.745238 3.049941-8.72425s1.631364-4.894091 2.340653-7.092886 1.489506-5.319664 2.269723-8.014961v-1.347648c0.567431-2.198795 1.063933-4.468518 1.631364-7.092886s0.922075-3.901087 1.276719-5.958024 0.567431-2.695297 0.780218-3.972016 0.567431-3.12087 0.851146-4.752234c0.922075-5.532451 1.702293-11.064902 2.269723-16.73921 0-1.915079 0.354644-3.901087 0.425574-5.745238a1.063933 1.063933 0 0 0 0-0.425573c0-2.056937 0-4.184803 0.425573-6.170811v-13.476483-9.29168-6.525455a7.092886 7.092886 0 0 0 0-1.27672c0-2.624368 0-5.248736-0.63836-7.873103a250.237013 250.237013 0 0 0-15.888064-67.240558l-2.127866-5.319664a397.201607 397.201607 0 0 0-7.092886-15.817136q-1.84415-3.759229-3.830158-7.44753c-1.134862-2.198795-2.411581-4.397589-3.617372-6.596384-2.056937-3.617372-4.184803-7.092886-6.454526-10.568399-0.993004-1.702293-2.127866-3.404585-3.333656-5.106878l-4.39759-6.383598a248.676578 248.676578 0 0 0-30.073836-34.75514l-5.674308-5.248736c-1.489506-1.418577-3.049941-2.766225-4.610376-4.042945s-3.12087-2.695297-4.681305-3.972016-4.539447-3.759229-7.092886-5.532451-4.042945-3.12087-6.17081-4.610375l-5.248736-3.688301-5.390593-3.546443c-0.496502 0-0.993004-0.709289-1.560435-0.993004L645.452612 293.645545l-3.830159-2.198795a16.029922 16.029922 0 0 0-1.84415-1.134862c-2.48251-1.418577-5.035949-2.908083-7.589388-4.255731-5.60338-3.049941-11.348617-5.887095-17.306641-8.440534l-5.958024-2.553439c-2.624368-1.063933-5.248736-2.127866-7.873104-3.049941l-7.802174-2.48251-7.092886-2.269724a221.865469 221.865469 0 0 0-22.484448-5.674308c-2.127866-0.496502-4.184803-0.851146-6.312669-1.205791s-4.184803-0.780217-6.312668-1.063933l-6.383597-0.922075c-5.390593-0.709289-10.781186-1.205791-16.17178-1.560435H515.014441h440.53914a509.765705 509.765705 0 0 1 68.446348 255.131104z" fill="#F7CD1A" p-id="9968"></path><path d="M363.723186 303.220941l-7.873103 5.887095 2.979012-2.269724zM386.845994 288.680525l-2.269724 1.276719-3.191798 1.84415 3.191798-1.915079zM418.976767 273.43082l-3.404585 1.347648 2.908083-0.993004zM431.034673 269.10416c-2.340652 0.780217-4.681305 1.560435-7.092886 2.48251 1.915079-0.709289 3.830158-1.489506 5.887095-2.127866zM446.851808 264.422855l-6.099882 1.631364h1.134862zM462.314299 260.876412c-4.823162 0.993004-9.575396 2.056937-14.185771 3.191799 2.056937-0.567431 4.042945-1.063933 6.17081-1.489506s5.248736-1.205791 8.014961-1.702293zM496.502009 256.478823l-5.461522 0.354644h1.063933zM503.594895 256.195108h-5.958024 1.20579zM514.943512 255.982321h5.674309-7.873103zM544.591775 258.039258zM632.330773 286.056157c-5.674309-3.049941-11.490475-5.816166-17.306642-8.440534 5.958024 2.553439 11.703262 5.390593 17.306642 8.440534zM719.856984 362.517466a259.812408 259.812408 0 0 0-30.073836-34.75514 248.676578 248.676578 0 0 1 30.073836 34.75514zM733.688112 639.99116L659.638383 768.01775H511.9645a255.840392 255.840392 0 0 0 221.723612-128.02659zM766.74096 486.997613a261.656559 261.656559 0 0 0-15.888065-67.240558 250.237013 250.237013 0 0 1 15.888065 67.240558z" fill="#32FF00" p-id="9969"></path><path d="M659.638383 255.982321H491.040487l-5.390593 0.496502h-2.198795c-1.489506 0-2.979012 0-4.468518 0.496502-2.908083 0-5.887095 0.780217-8.795179 1.276719l-6.738241 1.205791h-1.347648c-2.766225 0.496502-5.461522 1.063933-8.156819 1.702293s-4.113874 0.922075-6.170811 1.489506l-1.134862 0.354644-4.96502 1.276719h-1.134861l-1.134862 0.354645h-0.709289l-7.873103 2.48251-1.134862 0.354644c-2.056937 0.63836-3.972016 1.418577-5.887095 2.127866l-1.702293 0.567431-3.333656 1.276719-0.283715 2.340652-2.553439 0.993004c-2.411581 0.993004-4.894091 1.986008-7.092886 3.12087s-5.248736 2.340652-7.802174 3.617372l-7.092886 3.688301-6.24174 3.475514-2.269723 1.20579-3.191799 1.915079-2.127866 1.27672-5.248735 3.262727-4.96502 3.262728h-0.354645l-4.894091 3.404585-4.894091 3.617372-2.979012 2.269723-1.915079 1.489506a254.471465 254.471465 0 0 0-24.115812 21.704231c-2.48251 2.553439-4.96502 5.106878-7.092886 7.731246l-4.042945 4.610375c-1.347648 1.489506-2.624368 3.12087-3.972016 4.681305-2.624368 3.191799-5.106878 6.383597-7.589388 9.646325-4.32666 5.745238-8.369605 11.703262-12.199764 17.874072-1.489506 2.340652-2.908083 4.752234-4.255731 7.092886l-0.63836 0.993004-74.54623 127.246372-147.815741-256.053179A511.680785 511.680785 0 0 1 511.9645 0.000071z" fill="#B33306" p-id="9970"></path><path d="M279.885275 620.13108c2.198795 4.681305 4.539447 9.362609 7.092886 14.185772l-70.574214-122.352281 73.34044-127.104514a249.705046 249.705046 0 0 0-13.618341 27.520397c-1.631364 3.830158-3.191799 7.731246-4.610376 11.632333s-2.411581 7.092886-3.546443 10.426542c-2.056937 6.454526-3.901087 13.05091-5.390593 19.718222-0.993004 4.184803-1.84415 8.298676-2.553439 12.554408a252.506736 252.506736 0 0 0-3.262728 25.605318c-0.354644 4.32666-0.567431 8.653321-0.638359 13.05091v21.987946a242.647625 242.647625 0 0 0 2.766225 25.108816c0 2.198795 0.709289 4.397589 1.134862 6.596384l0.425573 2.48251c0.425573 1.986008 0.851146 3.972016 1.205791 5.958024 1.134862 4.894091 2.340652 9.717254 3.6883 14.185772 0.567431 2.056937 1.134862 4.042945 1.844151 6.028953s0.851146 2.837154 1.276719 4.184802 1.418577 4.184803 2.198795 6.24174 1.773221 4.894091 2.766225 7.092886c0.922075 2.340652 1.915079 4.752234 2.979012 7.092886s2.340652 5.461522 3.475514 7.802174zM492.317206 256.762538h5.035949H496.502009l-5.461522 0.354645zM498.558946 256.336965h4.752233-5.958024zM462.314299 763.123659c-5.177807-0.993004-10.355613-2.127866-15.462491-3.546443 5.106878 1.347648 10.284684 2.553439 15.462491 3.546443zM292.865256 644.175963c1.205791 2.056937 2.48251 4.184803 3.830159 6.24174-2.269723-3.404585-4.32666-7.092886-6.383597-10.426543 0.496502 1.418577 1.702293 2.766225 2.553438 4.184803zM339.89109 701.486481c2.979012 2.695297 6.028953 5.390593 9.220751 8.014961-3.12087-2.48251-6.24174-5.177807-9.220751-8.014961zM349.111841 709.288655c4.752234 3.901087 9.646325 7.660317 14.682274 11.20676a182.570882 182.570882 0 0 1-14.682274-11.20676zM514.943512 768.01775h-2.766225a250.520728 250.520728 0 0 1-26.314607-1.347648c8.582392 0.851146 17.306641 1.347648 26.10182 1.347648zM337.479508 324.641456c-2.553439 2.411581-5.177807 4.96502-7.660316 7.518459l3.830158-3.830158zM363.723186 303.220941l-7.873103 5.887095 2.979012-2.269724zM386.845994 288.680525l-2.269724 1.276719z" fill="#32FF00" p-id="9971"></path><path d="M492.317206 256.762538h5.035949H496.502009l-5.461522 0.354645zM503.594895 256.195108h-5.958024 1.20579zM514.943512 255.982321h5.674309-7.873103zM544.591775 258.039258zM643.608461 292.581612l-1.84415-1.134862 3.830158 2.198795 3.901088 2.48251zM719.856984 362.517466a259.812408 259.812408 0 0 0-30.073836-34.75514 248.676578 248.676578 0 0 1 30.073836 34.75514z" fill="#32FF00" p-id="9972"></path><path d="M659.638383 768.01775l-147.673883 255.98225a511.609856 511.609856 0 0 1-443.376294-255.98225l147.815741-256.053179 70.432356 122.068565 1.418578 2.411582 2.056937 3.546442 0.56743 0.922076c1.134862 1.915079 2.269723 3.901087 3.546443 5.816166l1.631364 2.624368 0.425573 0.709288c1.276719 1.986008 2.553439 4.042945 3.901087 5.958024s2.624368 3.830158 4.042945 5.745238 3.901087 5.319664 5.958024 7.873103 3.901087 4.894091 5.958025 7.092886v0.354644c1.84415 2.198795 3.759229 4.32666 5.674308 6.454527a257.8264 257.8264 0 0 0 70.928859 54.615221l3.6883 1.915079c1.276719 0.709289 2.553439 1.276719 3.75923 1.84415l6.099882 2.908083 1.631363 0.709289 7.092886 3.12087 7.731246 2.979012q3.333656 1.276719 6.596384 2.340652c3.688301 1.276719 7.092886 2.411581 11.206759 3.475514 2.269723 0.709289 4.610376 1.347648 7.092886 1.915079l6.596384 1.560435 7.731245 1.631364h1.347649l6.383597 1.134862c3.049941 0.567431 6.099882 0.993004 9.149823 1.347648h1.20579a258.251974 258.251974 0 0 0 31.563342 1.986008z" fill="#00C413" p-id="9973"></path><path d="M286.836303 634.033136l-70.432356-122.068565 73.34044-127.104514a249.705046 249.705046 0 0 0-13.618341 27.520397c-1.631364 3.830158-3.191799 7.731246-4.610376 11.632333s-2.411581 7.092886-3.546443 10.426542c-2.056937 6.454526-3.901087 13.05091-5.390593 19.718222-0.993004 4.184803-1.84415 8.298676-2.553439 12.554408a252.506736 252.506736 0 0 0-3.262728 25.605318c-0.354644 4.32666-0.567431 8.653321-0.638359 13.05091v21.987946a242.647625 242.647625 0 0 0 2.766225 25.108816c0 2.198795 0.709289 4.397589 1.134862 6.596384l0.425573 2.48251c0.425573 1.986008 0.851146 3.972016 1.205791 5.958024 1.134862 4.894091 2.340652 9.717254 3.6883 14.185772 0.567431 2.056937 1.134862 4.042945 1.844151 6.028953s0.851146 2.837154 1.276719 4.184802 1.418577 4.184803 2.198795 6.24174 1.773221 4.894091 2.766225 7.092886c0.922075 2.340652 1.915079 4.752234 2.979012 7.092886s1.986008 4.752234 3.12087 7.092886c2.553439 5.390593 4.894091 10.071898 7.305672 14.611344z" fill="#B33306" p-id="9974"></path><path d="M294.425691 646.729402c-1.276719-1.915079-2.411581-3.901087-3.546443-5.816166l1.986008 3.262727z" fill="#32FF00" p-id="9975"></path><path d="M733.688112 639.99116L659.638383 768.01775H511.9645a255.840392 255.840392 0 0 0 221.723612-128.02659z" fill="#00C413" p-id="9976"></path><path d="M704.820066 511.964571V531.115363c-0.425573 4.255732-0.993004 8.511463-1.702292 12.625337a30.995911 30.995911 0 0 1-0.63836 3.546443c0 0.993004-0.354644 2.056937-0.567431 3.04994s-0.63836 2.979012-0.993004 4.468519-0.780217 3.404585-1.205791 5.106877a7.092886 7.092886 0 0 1 0 0.993004c-0.496502 1.986008-1.063933 4.042945-1.702292 6.028953s-1.134862 3.688301-1.702293 5.532451-1.489506 4.397589-2.340652 6.596384a175.265209 175.265209 0 0 1-7.589388 17.590357c-0.993004 1.915079-1.915079 3.830158-2.979012 5.745238s-1.84415 3.546443-2.908083 5.248735v0.496502a192.855566 192.855566 0 0 1-168.526968 96.676034 188.316119 188.316119 0 0 1-23.761167-1.489506h-0.922076c-2.269723 0-4.610376-0.63836-7.092885-1.063933s-3.191799-0.496502-4.823163-0.851146h-0.993004l-5.887095-1.205791-4.894091-1.20579-5.248736-1.418577-8.440534-2.624368-4.894091-1.773222-5.248736-2.553439c-1.84415-0.780217-3.759229-1.489506-5.532451-2.340652L432.666036 688.009998l-4.610375-2.198795-2.837155-1.347648c-0.922075-0.496502-1.84415-0.922075-2.766225-1.489506a191.507918 191.507918 0 0 1-53.196644-41.138738c-1.489506-1.631364-2.908083-3.191799-4.32666-4.894091q-2.340652-2.766225-4.468518-5.532451c-1.560435-1.915079-3.049941-3.901087-4.539447-5.887096l-2.979012-4.32666c-1.063933-1.489506-1.986008-2.979012-2.979013-4.468518v-0.567431l-1.20579-1.986008-1.205791-1.915079-1.489506-2.48251-0.425573-0.63836-1.560435-2.695297-0.993004-1.84415c-1.84415-3.404585-3.617372-7.092886-5.248735-10.426542-0.851146-1.773221-1.631364-3.546443-2.411582-5.390593s-1.560435-3.546443-2.198794-5.390594c-0.780217-1.773221-1.418577-3.617372-2.127866-5.461522l-1.631364-4.681304c0-1.063933-0.63836-2.056937-0.993004-3.191799s-0.922075-2.979012-1.347648-4.539447c-0.993004-3.546443-1.915079-7.092886-2.766225-10.923044 0-1.418577-0.63836-2.979012-0.922076-4.468518v-1.84415c0-1.631364-0.63836-3.333656-0.851146-4.965021a182.712739 182.712739 0 0 1-2.056937-18.867076v-5.461522-6.24174-4.96502c0-3.262727 0-6.596384 0.496502-9.859111 0.496502-6.525455 1.347648-12.979981 2.411581-19.292649 0.63836-3.12087 1.205791-6.24174 1.986008-9.36261q1.702293-7.660317 4.042945-14.89506c0.851146-2.695297 1.773221-5.319664 2.695297-7.873103s2.198795-5.887095 3.475514-8.795179 2.48251-5.745238 3.830158-8.511463c1.986008-4.113874 4.113874-8.227748 6.383598-12.199763l0.496502-0.709289c0.993004-1.84415 2.127866-3.688301 3.191798-5.461522 2.908083-4.610376 5.958024-9.078894 9.220752-13.405554 1.84415-2.48251 3.759229-4.894091 5.674309-7.092886l3.04994-3.546443 3.049941-3.404585c1.773221-1.986008 3.617372-3.972016 5.532451-5.887096l5.816167-5.603379c3.972016-3.688301 8.08589-7.092886 12.341621-10.5684a11.064902 11.064902 0 0 0 1.418577-1.134862l5.958024-4.397589 3.75923-2.624368 3.759229-2.48251 3.972016-2.411581 1.560435-0.993004 2.411582-1.418577 1.702292-0.922076 4.752234-2.624367 5.532451-2.766226 5.887095-2.695296c1.773221-0.851146 3.688301-1.631364 5.532451-2.340653l2.553439-1.063933 2.48251-0.922075 1.276719-0.496502 5.319665-1.84415 5.958024-1.84415h1.347648l4.610376-1.27672h0.851146c3.546443-0.922075 7.092886-1.702293 10.781187-2.411581a2.48251 2.48251 0 0 1 0.993004 0l5.106877-0.922075c2.198795-0.425573 4.397589-0.709289 6.596384-0.993004h37.024864c4.113874 0 8.156819 0.709289 12.199764 1.20579l4.823162 0.63836 4.752234 0.780218 4.681305 0.922075c5.745238 1.205791 11.419546 2.624368 16.951997 4.32666 1.84415 0.496502 3.617372 1.134862 5.390593 1.702293s4.042945 1.418577 6.028953 2.127865 3.972016 1.489506 5.887095 2.340653l4.468518 1.84415c4.397589 1.986008 8.795178 4.113874 13.121839 6.383597l5.674309 3.191799 1.418577 0.851146a14.185772 14.185772 0 0 0 1.347648 0.851147l4.468518 2.695296 1.134862 0.780218c1.418577 0.851146 2.766225 1.773221 4.042945 2.695296l3.972016 2.766226 4.681305 3.475514c1.773221 1.276719 3.475514 2.695297 5.177806 4.113874l3.546443 2.979012 3.475514 3.049941 4.255732 3.972016a194.416001 194.416001 0 0 1 22.697235 26.172748l3.333656 4.823163c0.851146 1.276719 1.702293 2.553439 2.48251 3.830158 1.702293 2.624368 3.333656 5.248736 4.823162 8.014961 0.922075 1.631364 1.915079 3.262727 2.766226 4.894091s1.986008 3.759229 2.908083 5.674309c1.915079 3.901087 3.759229 7.873103 5.390593 11.916048 0.567431 1.276719 1.063933 2.624368 1.631364 3.972016a201.083314 201.083314 0 0 1 11.986977 50.643205c0 1.986008 0.354644 3.972016 0.425573 5.887095a5.035949 5.035949 0 0 1 0 0.993004v4.894092c0 1.631364-0.496502 1.489506-0.496502 3.830158z" fill="#2775F0" p-id="9977"></path><path d="M294.425691 646.729402c-1.276719-1.915079-2.411581-3.901087-3.546443-5.816166l1.986008 3.262727zM418.976767 273.43082l-3.404585 1.347648 2.908083-0.993004zM431.034673 269.10416c-2.340652 0.780217-4.681305 1.560435-7.092886 2.48251 1.915079-0.709289 3.830158-1.489506 5.887095-2.127866zM446.851808 264.422855l-6.099882 1.631364h1.134862zM462.314299 260.876412c-4.823162 0.993004-9.575396 2.056937-14.185771 3.191799 2.056937-0.567431 4.042945-1.063933 6.17081-1.489506s5.248736-1.205791 8.014961-1.702293zM496.502009 256.478823l-5.461522 0.354644h1.063933zM503.594895 256.195108h-5.958024 1.20579zM615.024131 277.615623c5.958024 2.553439 11.703262 5.390593 17.306642 8.440534-5.674309-3.049941-11.490475-5.816166-17.306642-8.440534zM766.74096 486.997613a261.656559 261.656559 0 0 0-15.888065-67.240558 250.237013 250.237013 0 0 1 15.888065 67.240558z" fill="#0677FF" p-id="9978"></path></svg>