<?xml version="1.0" standalone="no"?><!DOCTYPE svg PUBLIC "-//W3C//DTD SVG 1.1//EN" "http://www.w3.org/Graphics/SVG/1.1/DTD/svg11.dtd"><svg t="1564293754320" class="icon" viewBox="0 0 1024 1024" version="1.1" xmlns="http://www.w3.org/2000/svg" p-id="2962" xmlns:xlink="http://www.w3.org/1999/xlink" width="32" height="32"><defs><style type="text/css"></style></defs><path d="M319.453867 311.227733c-19.114667 0-38.365867 13.9264-38.365867 35.089067 0 21.060267 19.285333 35.157333 38.365867 35.157333 19.114667 0 31.914667-14.097067 31.914666-35.157333 0-21.162667-12.8-35.089067-31.914666-35.089067zM500.053333 381.474133c19.285333 0 32.017067-14.1312 32.017067-35.157333 0-21.162667-12.731733-35.089067-31.982933-35.089067-19.114667 0-38.2976 13.9264-38.2976 35.089067 0 21.026133 19.217067 35.157333 38.2976 35.157333z" fill="#1afa29" p-id="2963"></path><path d="M512 0C229.205333 0 0 229.205333 0 512s229.205333 512 512 512 512-229.205333 512-512S794.794667 0 512 0z m-107.178667 644.096c-32.426667 0-58.538667-6.656-90.965333-13.243733l-90.794667 46.1824 25.941334-79.189334c-64.989867-46.08-103.936-105.3696-103.936-177.664 0-125.269333 117.009067-223.914667 259.754666-223.914666 127.761067 0 239.616 78.848 262.0416 184.832a222.037333 222.037333 0 0 0-24.9856-1.536c-123.392 0-220.842667 93.3888-220.842666 208.2816 0 19.217067 3.003733 37.649067 8.021333 55.227733-8.021333 0.682667-16.042667 1.024-24.234667 1.024z m383.146667 92.16l19.524267 65.877333-71.236267-39.5264c-26.043733 6.587733-52.0192 13.141333-77.892267 13.141334-123.562667 0-221.013333-85.572267-221.013333-190.976 0-105.2672 97.450667-191.044267 221.013333-191.044267 116.6336 0 220.5696 85.777067 220.5696 191.044267 0 59.323733-38.8096 111.889067-90.965333 151.483733z" fill="#1afa29" p-id="2964"></path><path d="M732.842667 501.9648c-15.018667 0-30.1056 17.169067-30.1056 34.2016 0 17.1008 15.121067 34.065067 30.1056 34.065067 22.869333 0 38.161067-16.964267 38.161066-34.065067 0-17.066667-15.291733-34.2016-38.161066-34.2016zM592.4864 501.9648c-15.018667 0-30.276267 17.169067-30.276267 34.2016 0 17.1008 15.223467 34.065067 30.276267 34.065067 23.005867 0 37.9904-16.964267 37.9904-34.065067 0-17.066667-14.984533-34.2016-37.9904-34.2016z" fill="#1afa29" p-id="2965"></path></svg>